<svg xmlns="http://www.w3.org/2000/svg" viewBox="0 0 869.01 785.99"><defs><style>.cls-1,.cls-2{stroke:#4B2781;stroke-miterlimit:10;}.cls-1{stroke-width:0.5px;}</style></defs><title>camera_icon</title><g id="Layer_4" data-name="Layer 4"><path fill="#FAE01B" class="cls-1" d="M728.36,688.28,628.89,404.86a61.57,61.57,0,0,0-78.49-37.71L178.34,497.74a61.57,61.57,0,0,0-37.71,78.49L240.1,859.65a61.58,61.58,0,0,0,78.5,37.7L690.66,766.77A61.57,61.57,0,0,0,728.36,688.28Zm-95.29,53.35L353.15,839.88a61.57,61.57,0,0,1-78.49-37.71L203.22,598.62a61.58,61.58,0,0,1,37.7-78.5l279.92-98.24a61.56,61.56,0,0,1,78.49,37.71l71.45,203.55A61.57,61.57,0,0,1,633.07,741.63Z" transform="translate(-71.01 -115.11)"/></g><g id="Layer_5" data-name="Layer 5"><path fill="#FAE01B" class="cls-1" d="M939.44,620.53,836.72,325.86s-1.24-1.93-6.15-2.07c-4.41-.11-6.33,2.07-6.33,2.07L657.68,452.58s-5.68.28-7.47-.27-6.69-4.13-6.69-4.13L661,498l131.35-96.56s10.28-6.78,14.22-6.78c6,0,10.38,6.6,10.38,6.6l60,177.3s3.69,12,1.26,15.93c-3.29,5.36-16.47,7.38-16.47,7.38l-158,17.9,15.59,44.44,9.38-8.11,204-21.12s5.31-1.86,6.3-4.74C940.41,626.2,939.44,620.53,939.44,620.53Z" transform="translate(-71.01 -115.11)"/></g><g id="Layer_2" data-name="Layer 2"><path fill="#FAE01B" class="cls-2" d="M189.93,205A118.43,118.43,0,1,0,308.36,323.38,118.42,118.42,0,0,0,189.93,205Zm0,187.28a68.86,68.86,0,1,1,68.86-68.85A68.86,68.86,0,0,1,189.93,392.23Z" transform="translate(-71.01 -115.11)"/></g><g id="Layer_3" data-name="Layer 3"><path fill="#FAE01B" class="cls-2" d="M444,115.61A118.42,118.42,0,1,0,562.37,234,118.42,118.42,0,0,0,444,115.61Zm0,187.28A68.86,68.86,0,1,1,512.8,234,68.85,68.85,0,0,1,444,302.89Z" transform="translate(-71.01 -115.11)"/></g></svg>